# xmcd CD database file
#
# Track frame offsets:
#	150
#	29344
#	70938
#	110609
#	147647
#	212751
#
# Disc length: 3696 seconds
#
# Revision: 0
# Processed by: cddbd v1.5.1PL2 Copyright (c) Steve Scherf et al.
# Submitted via: CDex 1.40Release
#
DISCID=5c0e6e06
DTITLE=Ernie Williams and the Wildcats - Happy To Be Anywhere [CD2]
DYEAR=1999
DGENRE=Blues
TTITLE0=Who's Gonna Love You
TTITLE1=Tell Me Baby What's Wrong With You
TTITLE2=Searching For Salvation
TTITLE3=Trouble
TTITLE4=The Sky Is Crying
TTITLE5=All Along The Watchtower
EXTD=YEAR: 1999 ID3G: 0
EXTT0=
EXTT1=
EXTT2=
EXTT3=
EXTT4=
EXTT5=
PLAYORDER=
